<svg version="1.1" id="Layer_1" xmlns="http://www.w3.org/2000/svg" xmlns:xlink="http://www.w3.org/1999/xlink" x="0px" y="0px"
	 width="100" viewBox="0 0 625 219" enable-background="new 0 0 625 219" xml:space="preserve">
<path fill="none" opacity="1.000000" stroke="none" 
	d="
M479.000000,220.000000 
	C319.333344,220.000000 160.166702,220.000000 1.000043,220.000000 
	C1.000028,147.000031 1.000028,74.000053 1.000014,1.000062 
	C209.333267,1.000041 417.666534,1.000041 625.999878,1.000021 
	C625.999878,73.999939 625.999878,146.999878 625.999939,219.999908 
	C577.166687,220.000000 528.333313,220.000000 479.000000,220.000000 
M491.893066,88.413033 
	C491.893066,104.830246 491.893066,121.247467 491.893066,138.000305 
	C511.471649,138.000305 530.105408,138.166489 548.733276,137.907639 
	C555.016479,137.820328 561.426697,137.273056 567.534363,135.871078 
	C589.512085,130.826233 606.019348,118.805397 611.952148,96.204025 
	C617.812866,73.877121 614.449707,53.041161 596.860535,36.480457 
	C584.534790,24.875444 569.169739,20.178976 552.532471,19.885120 
	C533.548584,19.549820 514.555359,19.738831 495.566193,19.722502 
	C494.611786,19.721682 493.657227,19.934509 492.228821,20.104139 
	C492.228821,21.912773 492.228821,23.537596 492.228790,25.162420 
	C492.228607,38.821609 492.271912,52.481098 492.177155,66.139633 
	C492.164215,68.006798 491.463043,69.869179 491.207855,70.916626 
	C488.901367,51.589409 479.197754,36.978737 462.679657,26.958290 
	C447.826263,17.947710 431.523834,15.511999 414.582123,18.123325 
	C391.647675,21.658367 374.447388,33.319149 364.837433,55.020988 
	C364.294739,56.246567 363.639252,57.422180 362.700287,59.288933 
	C358.562775,48.382912 352.989441,39.592880 344.660950,32.796886 
	C326.444824,17.932661 305.454681,14.176657 283.078186,19.158510 
	C258.052216,24.730251 241.014725,39.897198 235.499802,65.386932 
	C230.103073,90.330399 237.593185,111.558632 258.077209,127.318901 
	C272.361053,138.308762 289.062744,141.621872 306.693695,139.975677 
	C332.264191,137.588181 351.184875,125.420639 361.515564,101.268059 
	C361.848938,100.488647 362.215088,99.723251 362.961731,98.080574 
	C366.844208,108.330116 371.940918,116.598228 379.341644,123.309464 
	C399.219177,141.335129 431.989166,145.895844 457.030701,133.751816 
	C476.140167,124.484573 487.844086,109.423973 491.893066,88.413033 
M154.033859,116.499878 
	C154.033859,108.397591 154.033859,100.295296 154.033859,92.218735 
	C169.565216,92.218735 184.474075,92.218735 199.901062,92.218735 
	C199.901062,107.571259 199.901062,122.626984 199.901062,137.764160 
	C211.179977,137.764160 221.935486,137.764160 232.768646,137.764160 
	C232.768646,98.329620 232.768646,59.129810 232.768646,20.040375 
	C221.652771,20.040375 210.903580,20.040375 199.710632,20.040375 
	C199.710632,34.780979 199.710632,49.200577 199.710632,63.655418 
	C184.228180,63.655418 169.201630,63.655418 153.788849,63.655418 
	C153.788849,48.825977 153.788849,34.394852 153.788849,20.000217 
	C142.635635,20.000217 131.877289,20.000217 120.884842,20.000217 
	C120.884842,59.358418 120.884842,98.428619 120.884842,137.704620 
	C131.958771,137.704620 142.846252,137.704620 154.033859,137.704620 
	C154.033859,130.776855 154.033859,124.138329 154.033859,116.499878 
M13.042639,86.500000 
	C13.042639,103.589447 13.042639,120.678894 13.042639,137.620529 
	C24.606501,137.620529 35.495667,137.620529 46.789894,137.620529 
	C46.789894,127.320152 46.789894,117.394180 46.789894,107.036957 
	C52.827969,107.036957 58.463219,107.177170 64.088257,106.997604 
	C69.736542,106.817299 75.473724,106.865921 81.000359,105.865883 
	C107.262283,101.113823 119.039574,85.880035 119.937355,65.276779 
	C120.853531,44.251316 109.478149,26.591488 82.812843,21.176420 
	C76.993179,19.994591 70.902817,19.833235 64.931221,19.771385 
	C47.809361,19.594049 30.684469,19.708918 13.780643,19.708918 
	C13.409337,20.438921 13.135689,20.726099 13.135092,21.013844 
	C13.090462,42.509201 13.067406,64.004601 13.042639,86.500000 
M108.534500,177.505829 
	C108.534500,184.591980 108.534500,191.678116 108.534500,199.053802 
	C110.159607,198.909470 111.936668,198.938339 111.967278,198.721130 
	C112.487549,195.028687 112.791191,191.305740 113.145355,187.560883 
	C120.858971,185.920242 127.647720,186.321014 131.213898,194.824387 
	C131.527466,195.572083 132.023788,196.393234 132.672302,196.820084 
	C134.150238,197.792862 135.775513,198.541779 137.340912,199.381668 
	C137.580536,198.996521 137.820175,198.611374 138.059799,198.226227 
	C135.315887,194.341537 132.571976,190.456833 129.718811,186.417480 
	C130.915939,185.711960 131.792953,185.250916 132.611969,184.703140 
	C137.143173,181.672562 138.613983,177.267807 137.878662,172.107132 
	C137.178619,167.193970 134.244858,163.439270 129.492813,162.634583 
	C122.749268,161.492630 115.820648,161.443619 108.534943,160.894714 
	C108.534943,166.900620 108.534943,171.704941 108.534500,177.505829 
M573.506592,195.428223 
	C571.583252,195.428223 569.659912,195.428223 567.651306,195.428223 
	C567.651306,190.521515 567.651306,186.433258 567.651306,181.807159 
	C573.197998,181.807159 578.489319,181.921692 583.767578,181.710220 
	C584.818604,181.668106 585.819641,180.378967 586.843750,179.664856 
	C585.808777,179.139404 584.786194,178.190689 583.736694,178.159851 
	C578.450195,178.004471 573.156738,178.088501 567.670776,178.088501 
	C567.670776,173.522705 567.670776,169.471237 567.670776,164.994110 
	C574.886780,164.994110 581.823059,164.994110 590.131409,164.994110 
	C588.671021,163.157181 587.965271,161.471588 587.218994,161.453476 
	C579.305176,161.261322 571.384888,161.334335 563.534485,161.334335 
	C563.534485,174.329025 563.534485,186.557404 563.534485,198.815399 
	C572.501770,198.815399 581.112366,198.815399 589.722961,198.815399 
	C589.948242,198.353348 590.173523,197.891281 590.398804,197.429230 
	C589.260376,196.763168 588.150879,195.589355 586.978394,195.522644 
	C582.831421,195.286667 578.662903,195.429413 573.506592,195.428223 
M203.491806,161.315277 
	C199.072021,161.315277 194.652237,161.315277 190.363052,161.315277 
	C190.363052,174.347748 190.363052,186.579208 190.363052,198.772552 
	C199.321503,198.772552 207.926819,198.772552 216.634583,198.772552 
	C216.634583,197.865448 216.684631,196.663391 216.627487,196.658264 
	C209.225098,195.995422 201.814850,195.420410 194.451950,194.844757 
	C194.451950,190.450409 194.451950,186.225601 194.451950,181.794586 
	C199.640839,181.794586 204.470352,181.942932 209.280670,181.704391 
	C210.728287,181.632614 212.122543,180.484726 213.541245,179.829819 
	C212.054092,179.252594 210.585678,178.243011 209.076370,178.177628 
	C204.170380,177.965103 199.249405,178.098129 194.441071,178.098129 
	C194.441071,173.313370 194.441071,169.252396 194.441071,164.853516 
	C201.746155,164.853516 208.697937,164.853516 215.649704,164.853516 
	C215.880447,164.354385 216.111206,163.855270 216.341965,163.356140 
	C215.216690,162.676712 214.139465,161.533051 212.956558,161.410690 
	C210.156281,161.120956 207.305817,161.316238 203.491806,161.315277 
M298.078308,192.361420 
	C293.792816,182.995239 289.553680,173.607208 285.163391,164.290405 
	C284.611816,163.119919 283.337585,161.667465 282.263062,161.546494 
	C281.252625,161.432770 279.534424,162.659042 279.034088,163.722260 
	C273.602722,175.264908 268.350006,186.891617 263.048584,198.495407 
	C263.396027,198.859604 263.743469,199.223816 264.090881,199.588028 
	C265.471527,198.483734 267.713470,197.611954 268.085114,196.235260 
	C269.781250,189.952606 273.691223,187.976517 279.779236,188.975922 
	C281.562805,189.268692 283.491333,189.310257 285.256378,188.967438 
	C290.851532,187.880722 293.919647,190.231949 295.319122,195.552536 
	C296.012543,198.188919 297.461273,200.125610 300.845062,198.485672 
	C300.019867,196.668747 299.199371,194.862213 298.078308,192.361420 
M510.708923,169.287827 
	C511.760986,166.806641 512.813049,164.325470 513.865051,161.844284 
	C513.316833,161.474136 512.768555,161.103989 512.220337,160.733826 
	C510.926941,162.185074 509.196899,163.433456 508.412689,165.121292 
	C504.109131,174.383789 500.037323,183.753952 495.541412,193.861618 
	C491.026489,183.576462 486.866425,174.174103 482.779663,164.739960 
	C481.705475,162.260223 480.529083,160.327408 477.081879,161.988770 
	C482.242188,173.654022 487.287903,185.188705 492.507263,196.644257 
	C492.986664,197.696442 494.614349,198.904053 495.637390,198.842941 
	C496.704163,198.779251 498.124207,197.467484 498.632690,196.355240 
	C502.635864,187.598557 506.457611,178.758896 510.708923,169.287827 
M28.313278,184.637283 
	C26.999458,177.702042 28.245060,171.533875 34.508785,167.507950 
	C40.494221,163.660904 46.695641,163.828842 52.873058,167.550125 
	C53.852795,168.140335 55.493797,167.632828 58.067017,167.632828 
	C48.858704,158.959824 35.860012,159.359940 28.606455,167.325714 
	C21.669998,174.943253 22.233084,187.454117 29.823349,194.363388 
	C37.439754,201.296478 50.286983,200.967209 56.618359,192.957886 
	C55.207550,192.615921 53.662174,192.449310 52.564968,193.072174 
	C42.819603,198.604538 33.197121,195.564194 28.313278,184.637283 
M361.486023,168.574173 
	C361.288055,166.279007 361.681091,164.681824 364.647522,164.969040 
	C367.117645,165.208176 369.641388,165.151703 372.116913,164.940063 
	C373.011200,164.863617 373.834381,163.955536 374.689972,163.426926 
	C373.819885,162.713409 372.960815,161.396255 372.077972,161.380081 
	C363.603058,161.224945 355.122314,161.208328 346.648834,161.400208 
	C345.665558,161.422485 344.716339,162.949493 343.751343,163.778870 
	C344.075958,164.247971 344.400574,164.717087 344.725220,165.186188 
	C348.802979,165.186188 352.880737,165.186188 357.209869,165.186188 
	C357.209869,175.630890 357.281219,185.589874 357.168457,195.546768 
	C357.132416,198.730743 358.119873,199.840225 361.484253,198.444000 
	C361.484253,188.813919 361.484253,179.187256 361.486023,168.574173 
M423.888885,167.664307 
	C423.888885,177.941406 423.888885,188.218521 423.888885,198.495621 
	C424.312469,198.816055 424.736053,199.136490 425.159668,199.456909 
	C426.083344,198.396790 427.789246,197.351410 427.809601,196.274246 
	C428.010284,185.640564 428.006531,175.000290 427.821808,164.366058 
	C427.802124,163.231934 426.261749,162.124207 425.426849,161.004242 
	C424.914185,161.282440 424.401550,161.560638 423.888885,161.838837 
	C423.888885,163.466660 423.888885,165.094498 423.888885,167.664307 
z"/>
<path fill="#C85205" opacity="1.000000" stroke="none" 
	d="
M491.056732,88.159889 
	C487.844086,109.423973 476.140167,124.484573 457.030701,133.751816 
	C431.989166,145.895844 399.219177,141.335129 379.341644,123.309464 
	C371.940918,116.598228 366.844208,108.330116 362.961731,98.080574 
	C362.215088,99.723251 361.848938,100.488647 361.515564,101.268059 
	C351.184875,125.420639 332.264191,137.588181 306.693695,139.975677 
	C289.062744,141.621872 272.361053,138.308762 258.077209,127.318901 
	C237.593185,111.558632 230.103073,90.330399 235.499802,65.386932 
	C241.014725,39.897198 258.052216,24.730251 283.078186,19.158510 
	C305.454681,14.176657 326.444824,17.932661 344.660950,32.796886 
	C352.989441,39.592880 358.562775,48.382912 362.700287,59.288933 
	C363.639252,57.422180 364.294739,56.246567 364.837433,55.020988 
	C374.447388,33.319149 391.647675,21.658367 414.582123,18.123325 
	C431.523834,15.511999 447.826263,17.947710 462.679657,26.958290 
	C479.197754,36.978737 488.901367,51.589409 491.118408,71.813179 
	C491.038239,77.859787 491.047485,83.009834 491.056732,88.159889 
M413.243652,47.557056 
	C399.922394,53.945885 392.890778,66.249931 394.159943,81.772919 
	C395.283356,95.512650 401.797699,105.796661 415.026398,110.775734 
	C427.186401,115.352554 441.062408,111.794388 449.358704,102.561760 
	C459.696838,91.056778 460.978577,72.106552 452.310486,58.919365 
	C444.159210,46.518486 429.654785,42.090408 413.243652,47.557056 
M297.743866,45.041573 
	C276.390869,47.333687 263.943848,65.610397 268.812805,87.522789 
	C272.963409,106.202194 290.877106,116.738708 309.177032,111.264297 
	C325.070465,106.509796 333.809998,91.110725 331.161774,72.527069 
	C328.788025,55.869736 316.127655,45.159443 297.743866,45.041573 
z"/>
<path fill="#C95305" opacity="1.000000" stroke="none" 
	d="
M491.474915,88.286461 
	C491.047485,83.009834 491.038239,77.859787 491.054749,72.221756 
	C491.463043,69.869179 492.164215,68.006798 492.177155,66.139633 
	C492.271912,52.481098 492.228607,38.821609 492.228790,25.162420 
	C492.228821,23.537596 492.228821,21.912773 492.228821,20.104139 
	C493.657227,19.934509 494.611786,19.721682 495.566193,19.722502 
	C514.555359,19.738831 533.548584,19.549820 552.532471,19.885120 
	C569.169739,20.178976 584.534790,24.875444 596.860535,36.480457 
	C614.449707,53.041161 617.812866,73.877121 611.952148,96.204025 
	C606.019348,118.805397 589.512085,130.826233 567.534363,135.871078 
	C561.426697,137.273056 555.016479,137.820328 548.733276,137.907639 
	C530.105408,138.166489 511.471649,138.000305 491.893066,138.000305 
	C491.893066,121.247467 491.893066,104.830246 491.474915,88.286461 
M525.901733,77.499992 
	C525.901733,88.601547 525.901733,99.703110 525.901733,110.931763 
	C535.262756,110.931763 544.097900,111.494392 552.834167,110.804810 
	C567.277710,109.664719 578.123962,99.261444 580.010193,85.789925 
	C582.464661,68.259102 576.180725,54.856861 562.465332,49.283657 
	C550.682861,44.495899 538.338318,46.641861 525.901733,46.395256 
	C525.901733,56.866413 525.901733,66.683197 525.901733,77.499992 
z"/>
<path fill="#C85103" opacity="1.000000" stroke="none" 
	d="
M154.033859,116.999847 
	C154.033859,124.138329 154.033859,130.776855 154.033859,137.704620 
	C142.846252,137.704620 131.958771,137.704620 120.884842,137.704620 
	C120.884842,98.428619 120.884842,59.358418 120.884842,20.000217 
	C131.877289,20.000217 142.635635,20.000217 153.788849,20.000217 
	C153.788849,34.394852 153.788849,48.825977 153.788849,63.655418 
	C169.201630,63.655418 184.228180,63.655418 199.710632,63.655418 
	C199.710632,49.200577 199.710632,34.780979 199.710632,20.040375 
	C210.903580,20.040375 221.652771,20.040375 232.768646,20.040375 
	C232.768646,59.129810 232.768646,98.329620 232.768646,137.764160 
	C221.935486,137.764160 211.179977,137.764160 199.901062,137.764160 
	C199.901062,122.626984 199.901062,107.571259 199.901062,92.218735 
	C184.474075,92.218735 169.565216,92.218735 154.033859,92.218735 
	C154.033859,100.295296 154.033859,108.397591 154.033859,116.999847 
z"/>
<path fill="#C85205" opacity="1.000000" stroke="none" 
	d="
M13.042641,86.000000 
	C13.067406,64.004601 13.090462,42.509201 13.135092,21.013844 
	C13.135689,20.726099 13.409337,20.438921 13.780643,19.708918 
	C30.684469,19.708918 47.809361,19.594049 64.931221,19.771385 
	C70.902817,19.833235 76.993179,19.994591 82.812843,21.176420 
	C109.478149,26.591488 120.853531,44.251316 119.937355,65.276779 
	C119.039574,85.880035 107.262283,101.113823 81.000359,105.865883 
	C75.473724,106.865921 69.736542,106.817299 64.088257,106.997604 
	C58.463219,107.177170 52.827969,107.036957 46.789894,107.036957 
	C46.789894,117.394180 46.789894,127.320152 46.789894,137.620529 
	C35.495667,137.620529 24.606501,137.620529 13.042639,137.620529 
	C13.042639,120.678894 13.042639,103.589447 13.042641,86.000000 
M49.757072,80.746826 
	C57.241261,80.498924 64.784836,80.751328 72.194054,79.871895 
	C80.753937,78.855881 85.721512,72.624771 85.961128,64.117043 
	C86.214722,55.112869 81.744736,48.362411 73.132240,47.119415 
	C64.509117,45.874882 55.678226,46.069931 46.662300,45.620209 
	C46.662300,56.941193 46.600124,67.263397 46.756157,77.582306 
	C46.772186,78.642380 48.092503,79.682739 49.757072,80.746826 
z"/>
<path fill="#CC5E16" opacity="1.000000" stroke="none" 
	d="
M108.534721,177.007553 
	C108.534943,171.704941 108.534943,166.900620 108.534943,160.894714 
	C115.820648,161.443619 122.749268,161.492630 129.492813,162.634583 
	C134.244858,163.439270 137.178619,167.193970 137.878662,172.107132 
	C138.613983,177.267807 137.143173,181.672562 132.611969,184.703140 
	C131.792953,185.250916 130.915939,185.711960 129.718811,186.417480 
	C132.571976,190.456833 135.315887,194.341537 138.059799,198.226227 
	C137.820175,198.611374 137.580536,198.996521 137.340912,199.381668 
	C135.775513,198.541779 134.150238,197.792862 132.672302,196.820084 
	C132.023788,196.393234 131.527466,195.572083 131.213898,194.824387 
	C127.647720,186.321014 120.858971,185.920242 113.145355,187.560883 
	C112.791191,191.305740 112.487549,195.028687 111.967278,198.721130 
	C111.936668,198.938339 110.159607,198.909470 108.534500,199.053802 
	C108.534500,191.678116 108.534500,184.591980 108.534721,177.007553 
M114.650322,165.001740 
	C114.044510,165.417068 112.919991,165.821808 112.911263,166.249329 
	C112.794205,171.982422 112.832893,177.718704 112.832893,183.379608 
	C117.513588,183.379608 121.518883,183.755478 125.424271,183.291122 
	C131.218948,182.602127 134.053162,179.236450 133.951111,174.125916 
	C133.847427,168.934830 130.442322,165.539215 124.594940,165.090729 
	C121.615715,164.862244 118.607613,165.010330 114.650322,165.001740 
z"/>
<path fill="#CD621C" opacity="1.000000" stroke="none" 
	d="
M574.004578,195.428406 
	C578.662903,195.429413 582.831421,195.286667 586.978394,195.522644 
	C588.150879,195.589355 589.260376,196.763168 590.398804,197.429230 
	C590.173523,197.891281 589.948242,198.353348 589.722961,198.815399 
	C581.112366,198.815399 572.501770,198.815399 563.534485,198.815399 
	C563.534485,186.557404 563.534485,174.329025 563.534485,161.334335 
	C571.384888,161.334335 579.305176,161.261322 587.218994,161.453476 
	C587.965271,161.471588 588.671021,163.157181 590.131409,164.994110 
	C581.823059,164.994110 574.886780,164.994110 567.670776,164.994110 
	C567.670776,169.471237 567.670776,173.522705 567.670776,178.088501 
	C573.156738,178.088501 578.450195,178.004471 583.736694,178.159851 
	C584.786194,178.190689 585.808777,179.139404 586.843750,179.664856 
	C585.819641,180.378967 584.818604,181.668106 583.767578,181.710220 
	C578.489319,181.921692 573.197998,181.807159 567.651306,181.807159 
	C567.651306,186.433258 567.651306,190.521515 567.651306,195.428223 
	C569.659912,195.428223 571.583252,195.428223 574.004578,195.428406 
z"/>
<path fill="#CC5F17" opacity="1.000000" stroke="none" 
	d="
M203.983719,161.315369 
	C207.305817,161.316238 210.156281,161.120956 212.956558,161.410690 
	C214.139465,161.533051 215.216690,162.676712 216.341965,163.356140 
	C216.111206,163.855270 215.880447,164.354385 215.649704,164.853516 
	C208.697937,164.853516 201.746155,164.853516 194.441071,164.853516 
	C194.441071,169.252396 194.441071,173.313370 194.441071,178.098129 
	C199.249405,178.098129 204.170380,177.965103 209.076370,178.177628 
	C210.585678,178.243011 212.054092,179.252594 213.541245,179.829803 
	C212.122543,180.484726 210.728287,181.632614 209.280670,181.704391 
	C204.470352,181.942932 199.640839,181.794586 194.451950,181.794586 
	C194.451950,186.225601 194.451950,190.450409 194.451950,194.844757 
	C201.814850,195.420410 209.225098,195.995422 216.627487,196.658264 
	C216.684631,196.663391 216.634583,197.865448 216.634583,198.772552 
	C207.926819,198.772552 199.321503,198.772552 190.363052,198.772552 
	C190.363052,186.579208 190.363052,174.347748 190.363052,161.315277 
	C194.652237,161.315277 199.072021,161.315277 203.983719,161.315369 
z"/>
<path fill="#CB5B11" opacity="1.000000" stroke="none" 
	d="
M298.228577,192.708557 
	C299.199371,194.862213 300.019867,196.668747 300.845062,198.485672 
	C297.461273,200.125610 296.012543,198.188919 295.319122,195.552536 
	C293.919647,190.231949 290.851532,187.880722 285.256378,188.967438 
	C283.491333,189.310257 281.562805,189.268692 279.779236,188.975922 
	C273.691223,187.976517 269.781250,189.952606 268.085114,196.235260 
	C267.713470,197.611954 265.471527,198.483734 264.090881,199.588028 
	C263.743469,199.223816 263.396027,198.859604 263.048584,198.495407 
	C268.350006,186.891617 273.602722,175.264908 279.034088,163.722260 
	C279.534424,162.659042 281.252625,161.432770 282.263062,161.546494 
	C283.337585,161.667465 284.611816,163.119919 285.163391,164.290405 
	C289.553680,173.607208 293.792816,182.995239 298.228577,192.708557 
M287.141602,185.837601 
	C288.167999,185.659668 289.194397,185.481720 290.665497,185.226685 
	C287.763885,178.761124 285.083801,172.789215 281.906403,165.709167 
	C278.730591,172.905045 276.048035,178.983322 273.022705,185.838196 
	C278.025177,185.838196 282.120941,185.838196 287.141602,185.837601 
z"/>
<path fill="#CC5E16" opacity="1.000000" stroke="none" 
	d="
M510.522064,169.616302 
	C506.457611,178.758896 502.635864,187.598557 498.632690,196.355240 
	C498.124207,197.467484 496.704163,198.779251 495.637390,198.842941 
	C494.614349,198.904053 492.986664,197.696442 492.507263,196.644257 
	C487.287903,185.188705 482.242188,173.654022 477.081879,161.988770 
	C480.529083,160.327408 481.705475,162.260223 482.779663,164.739960 
	C486.866425,174.174103 491.026489,183.576462 495.541412,193.861618 
	C500.037323,183.753952 504.109131,174.383789 508.412689,165.121292 
	C509.196899,163.433456 510.926941,162.185074 512.220337,160.733826 
	C512.768555,161.103989 513.316833,161.474136 513.865051,161.844284 
	C512.813049,164.325470 511.760986,166.806641 510.522064,169.616302 
z"/>
<path fill="#CB5B12" opacity="1.000000" stroke="none" 
	d="
M28.478415,185.010223 
	C33.197121,195.564194 42.819603,198.604538 52.564968,193.072174 
	C53.662174,192.449310 55.207550,192.615921 56.618359,192.957886 
	C50.286983,200.967209 37.439754,201.296478 29.823349,194.363388 
	C22.233084,187.454117 21.669998,174.943253 28.606455,167.325714 
	C35.860012,159.359940 48.858704,158.959824 58.067017,167.632828 
	C55.493797,167.632828 53.852795,168.140335 52.873058,167.550125 
	C46.695641,163.828842 40.494221,163.660904 34.508785,167.507950 
	C28.245060,171.533875 26.999458,177.702042 28.478415,185.010223 
z"/>
<path fill="#CE6520" opacity="1.000000" stroke="none" 
	d="
M361.485138,169.067383 
	C361.484253,179.187256 361.484253,188.813919 361.484253,198.444000 
	C358.119873,199.840225 357.132416,198.730743 357.168457,195.546768 
	C357.281219,185.589874 357.209869,175.630890 357.209869,165.186188 
	C352.880737,165.186188 348.802979,165.186188 344.725220,165.186188 
	C344.400574,164.717087 344.075958,164.247971 343.751343,163.778870 
	C344.716339,162.949493 345.665558,161.422485 346.648834,161.400208 
	C355.122314,161.208328 363.603058,161.224945 372.077972,161.380081 
	C372.960815,161.396255 373.819885,162.713409 374.689972,163.426941 
	C373.834381,163.955536 373.011200,164.863617 372.116913,164.940063 
	C369.641388,165.151703 367.117645,165.208176 364.647522,164.969040 
	C361.681091,164.681824 361.288055,166.279007 361.485138,169.067383 
z"/>
<path fill="#CB590F" opacity="1.000000" stroke="none" 
	d="
M423.888885,167.193314 
	C423.888885,165.094498 423.888885,163.466660 423.888885,161.838837 
	C424.401550,161.560638 424.914185,161.282440 425.426849,161.004242 
	C426.261749,162.124207 427.802124,163.231934 427.821808,164.366058 
	C428.006531,175.000290 428.010284,185.640564 427.809601,196.274246 
	C427.789246,197.351410 426.083344,198.396790 425.159668,199.456909 
	C424.736053,199.136490 424.312469,198.816055 423.888885,198.495621 
	C423.888885,188.218521 423.888885,177.941406 423.888885,167.193314 
z"/>
<path fill="none" opacity="1.000000" stroke="none" 
	d="
M413.592255,47.381275 
	C429.654785,42.090408 444.159210,46.518486 452.310486,58.919365 
	C460.978577,72.106552 459.696838,91.056778 449.358704,102.561760 
	C441.062408,111.794388 427.186401,115.352554 415.026398,110.775734 
	C401.797699,105.796661 395.283356,95.512650 394.159943,81.772919 
	C392.890778,66.249931 399.922394,53.945885 413.592255,47.381275 
z"/>
<path fill="none" opacity="1.000000" stroke="none" 
	d="
M298.194702,45.030491 
	C316.127655,45.159443 328.788025,55.869736 331.161774,72.527069 
	C333.809998,91.110725 325.070465,106.509796 309.177032,111.264297 
	C290.877106,116.738708 272.963409,106.202194 268.812805,87.522789 
	C263.943848,65.610397 276.390869,47.333687 298.194702,45.030491 
z"/>
<path fill="none" opacity="1.000000" stroke="none" 
	d="
M525.901733,76.999985 
	C525.901733,66.683197 525.901733,56.866413 525.901733,46.395256 
	C538.338318,46.641861 550.682861,44.495899 562.465332,49.283657 
	C576.180725,54.856861 582.464661,68.259102 580.010193,85.789925 
	C578.123962,99.261444 567.277710,109.664719 552.834167,110.804810 
	C544.097900,111.494392 535.262756,110.931763 525.901733,110.931763 
	C525.901733,99.703110 525.901733,88.601547 525.901733,76.999985 
z"/>
<path fill="none" opacity="1.000000" stroke="none" 
	d="
M49.282341,80.739532 
	C48.092503,79.682739 46.772186,78.642380 46.756157,77.582306 
	C46.600124,67.263397 46.662300,56.941193 46.662300,45.620209 
	C55.678226,46.069931 64.509117,45.874882 73.132240,47.119415 
	C81.744736,48.362411 86.214722,55.112869 85.961128,64.117043 
	C85.721512,72.624771 80.753937,78.855881 72.194054,79.871895 
	C64.784836,80.751328 57.241261,80.498924 49.282341,80.739532 
z"/>
<path fill="none" opacity="1.000000" stroke="none" 
	d="
M115.131439,164.994965 
	C118.607613,165.010330 121.615715,164.862244 124.594940,165.090729 
	C130.442322,165.539215 133.847427,168.934830 133.951111,174.125916 
	C134.053162,179.236450 131.218948,182.602127 125.424271,183.291122 
	C121.518883,183.755478 117.513588,183.379608 112.832893,183.379608 
	C112.832893,177.718704 112.794205,171.982422 112.911263,166.249329 
	C112.919991,165.821808 114.044510,165.417068 115.131439,164.994965 
z"/>
<path fill="none" opacity="1.000000" stroke="none" 
	d="
M286.679138,185.837891 
	C282.120941,185.838196 278.025177,185.838196 273.022705,185.838196 
	C276.048035,178.983322 278.730591,172.905045 281.906403,165.709167 
	C285.083801,172.789215 287.763885,178.761124 290.665497,185.226685 
	C289.194397,185.481720 288.167999,185.659668 286.679138,185.837891 
z"/>
</svg>