<svg version="1.1" id="Layer_1" xmlns="http://www.w3.org/2000/svg" xmlns:xlink="http://www.w3.org/1999/xlink" x="0px" y="0px"
	 width="30" viewBox="0 0 265 192" enable-background="new 0 0 265 192" xml:space="preserve">
<path fill="none" opacity="1.000000" stroke="none" 
	d="
M162.000000,193.000000 
	C108.000000,193.000000 54.500008,193.000000 1.000007,193.000000 
	C1.000005,129.000000 1.000005,65.000015 1.000002,1.000016 
	C89.333321,1.000010 177.666641,1.000010 266.000000,1.000005 
	C266.000000,64.999985 266.000000,128.999969 266.000000,192.999969 
	C231.500000,193.000000 197.000000,193.000000 162.000000,193.000000 
M209.051575,31.262468 
	C204.387878,31.178432 199.702774,30.764044 195.063995,31.064587 
	C167.323456,32.861897 145.692047,44.610188 132.540756,69.942474 
	C132.150131,70.694901 131.555481,71.341415 130.615952,72.650314 
	C128.440872,62.846619 124.221954,55.059547 117.428795,48.799572 
	C106.901688,39.098713 94.082939,34.500385 80.122490,34.107361 
	C57.640564,33.474438 35.132725,33.758831 12.635748,33.680199 
	C12.017007,33.678032 11.397289,33.955578 10.588233,34.147774 
	C10.588233,78.699936 10.588233,123.118156 10.588233,167.759384 
	C23.246101,167.759384 35.650188,167.759384 48.586670,167.759384 
	C48.586670,156.124008 48.586670,144.719467 48.586670,132.889053 
	C57.751537,132.889053 66.401482,133.197678 75.022224,132.827042 
	C95.117935,131.963043 113.137627,126.528725 125.055092,108.615784 
	C125.157539,108.461800 125.601074,108.534752 125.849648,108.505898 
	C130.787491,140.912323 149.183487,161.676849 181.024399,168.554352 
	C210.061279,174.826202 236.543015,169.091217 257.645660,145.502365 
	C249.399445,138.028198 241.523285,130.889435 233.334366,123.467186 
	C225.602463,132.281830 216.488876,138.287903 204.618484,139.015732 
	C192.712753,139.745743 182.134506,136.718903 173.867294,127.703026 
	C160.469345,113.091743 160.932007,86.796928 174.719772,72.882538 
	C189.929260,57.533382 212.317352,59.355019 233.602280,77.874474 
	C241.502640,70.710983 249.430099,63.522915 257.523102,56.184750 
	C255.731644,54.223763 254.437744,52.713135 253.046005,51.298790 
	C241.187607,39.247654 226.457306,33.397331 209.051575,31.262468 
z"/>
<path fill="#FFFFFF" opacity="1.000000" stroke="none" 
	d="
M209.502136,31.329884 
	C226.457306,33.397331 241.187607,39.247654 253.046005,51.298790 
	C254.437744,52.713135 255.731644,54.223763 257.523102,56.184750 
	C249.430099,63.522915 241.502640,70.710983 233.602280,77.874474 
	C212.317352,59.355019 189.929260,57.533382 174.719772,72.882538 
	C160.932007,86.796928 160.469345,113.091743 173.867294,127.703026 
	C182.134506,136.718903 192.712753,139.745743 204.618484,139.015732 
	C216.488876,138.287903 225.602463,132.281830 233.334366,123.467186 
	C241.523285,130.889435 249.399445,138.028198 257.645660,145.502365 
	C236.543015,169.091217 210.061279,174.826202 181.024399,168.554352 
	C149.183487,161.676849 130.787491,140.912323 125.849648,108.505898 
	C125.601074,108.534752 125.157539,108.461800 125.055092,108.615784 
	C113.137627,126.528725 95.117935,131.963043 75.022224,132.827042 
	C66.401482,133.197678 57.751537,132.889053 48.586670,132.889053 
	C48.586670,144.719467 48.586670,156.124008 48.586670,167.759384 
	C35.650188,167.759384 23.246101,167.759384 10.588233,167.759384 
	C10.588233,123.118156 10.588233,78.699936 10.588233,34.147774 
	C11.397289,33.955578 12.017007,33.678032 12.635748,33.680199 
	C35.132725,33.758831 57.640564,33.474438 80.122490,34.107361 
	C94.082939,34.500385 106.901688,39.098713 117.428795,48.799572 
	C124.221954,55.059547 128.440872,62.846619 130.615952,72.650314 
	C131.555481,71.341415 132.150131,70.694901 132.540756,69.942474 
	C145.692047,44.610188 167.323456,32.861897 195.063995,31.064587 
	C199.702774,30.764044 204.387878,31.178432 209.502136,31.329884 
M48.414051,83.499992 
	C48.414051,89.911392 48.414051,96.322784 48.414051,102.191841 
	C58.474499,102.191841 67.838432,102.961258 77.018196,101.989983 
	C87.621925,100.868034 92.974174,93.990524 93.085609,83.812012 
	C93.201866,73.192535 87.998970,65.706451 77.615807,64.502144 
	C68.163788,63.405830 58.484379,64.269997 48.414291,64.269997 
	C48.414291,70.275612 48.414291,76.388184 48.414051,83.499992 
z"/>
<path fill="none" opacity="1.000000" stroke="none" 
	d="
M48.414169,83.000381 
	C48.414291,76.388184 48.414291,70.275612 48.414291,64.269997 
	C58.484379,64.269997 68.163788,63.405830 77.615807,64.502144 
	C87.998970,65.706451 93.201866,73.192535 93.085609,83.812012 
	C92.974174,93.990524 87.621925,100.868034 77.018196,101.989983 
	C67.838432,102.961258 58.474499,102.191841 48.414051,102.191841 
	C48.414051,96.322784 48.414051,89.911392 48.414169,83.000381 
z"/>
</svg>